<svg width="315" height="126" viewBox="0 0 315 126" fill="none" xmlns="http://www.w3.org/2000/svg">
<path fill-rule="evenodd" clip-rule="evenodd" d="M165.927 105.557V74.5336L132.463 60.5636L150.027 42.181L127.008 20.1758L120.48 33.6448L120.73 20.696L91.5586 30.7352L92.3098 47.6148L97.2641 46.2275L102.415 105.788L122.984 102.531L122.948 82.6459L165.927 105.557Z" fill="#0B0000"/>
<path fill-rule="evenodd" clip-rule="evenodd" d="M97.0508 35.07L114.775 29.3857L115.866 49.0593L128.923 29.3086L141.675 42.3922L123.843 62.644L160.545 78.3097V96.3262L117.905 73.3383L117.977 97.4245L106.942 99.0431L102.238 38.7889L97.2654 40.1763L97.0508 35.07Z" fill="white"/>
<path fill-rule="evenodd" clip-rule="evenodd" d="M231.44 23.1406H212.124L211.569 26.5512H191.251L181.754 89.1177L204.934 93.0486L206.204 84.0692L212.267 96.1123L215.951 88.424L217.311 101.045L243.585 106.036L231.44 23.1406Z" fill="#0B0000"/>
<path fill-rule="evenodd" clip-rule="evenodd" d="M217.203 28.9258H227.04L237.002 98.6218L222.479 96.2324L218.616 68.6585L213.161 83.8617L204.969 64.8625H204.88L201.642 86.8869L188.031 84.3242L196.133 32.1437H209.905L213.339 52.3762L217.203 28.9258Z" fill="white"/>
<path fill-rule="evenodd" clip-rule="evenodd" d="M256.036 28.8477L285.1 35.7267L287.264 47.2881L289.607 36.8636L314.343 43.3187L290.591 120.414L272.366 114.229L272.223 106.502L254.73 103.862L260.633 47.2881L256.251 46.2283L256.036 28.8477Z" fill="#0B0000"/>
<path fill-rule="evenodd" clip-rule="evenodd" d="M261.206 36.0703L280.147 40.1746L286.532 72.7392L293.06 43.5467L307.476 46.9958L287.176 113.243L277.088 109.986L276.212 69.9452L271.132 100.833L260.133 98.9643L265.069 42.8723L260.92 41.6776L261.206 36.0703Z" fill="white"/>
<path fill-rule="evenodd" clip-rule="evenodd" d="M253.244 94.9562C246.967 97.4997 240.295 97.2107 234.93 94.1276C229.957 91.2951 226.487 86.3815 225.146 80.3118C222.463 68.2108 229.886 54.395 241.69 49.5199C248.04 46.9379 254.765 47.2462 260.166 50.3485C265.085 53.1617 268.519 57.9597 269.824 63.856C272.561 76.1304 265.138 90.0812 253.244 94.9562Z" fill="#0B0000"/>
<path fill-rule="evenodd" clip-rule="evenodd" d="M265.224 64.9776C263.078 55.266 253.456 50.391 243.583 54.3989C234.014 58.3491 227.736 69.5058 229.9 79.2174C232.118 89.2373 241.651 94.0931 251.524 90.0851C261.164 86.1542 267.442 74.9204 265.224 64.9776Z" fill="white"/>
<path fill-rule="evenodd" clip-rule="evenodd" d="M258.051 66.6867C257.855 72.0434 253.526 76.0899 248.232 75.8587C243.028 75.6275 239.021 71.2341 239.218 65.8774C239.415 60.8481 243.725 56.8016 249.019 57.0329C254.242 57.2641 258.248 61.6574 258.051 66.6867Z" fill="#0B0000"/>
<path fill-rule="evenodd" clip-rule="evenodd" d="M251.328 57.2672C248.162 57.1324 245.515 59.4832 245.39 62.5084C245.283 65.5336 247.751 68.1157 250.917 68.2506C254.082 68.3855 256.73 66.0346 256.855 63.0094C256.962 59.9842 254.494 57.4021 251.328 57.2672Z" fill="white"/>
<path fill-rule="evenodd" clip-rule="evenodd" d="M93.0038 101.703C86.5829 104.632 79.6254 104.632 73.9199 101.684C68.6436 98.9477 64.834 94.0149 63.2064 87.7524C59.9512 75.2854 67.1233 60.5831 79.214 54.9759C85.7065 52.0277 92.7177 52.0277 98.459 55.0144C103.682 57.7121 107.438 62.5486 109.029 68.6183C112.356 81.2588 105.166 96.1152 93.0038 101.703Z" fill="#0B0000"/>
<path fill-rule="evenodd" clip-rule="evenodd" d="M104.436 69.3883C101.788 59.2914 91.5221 54.6283 81.3273 59.2914C71.4366 63.8774 65.3018 75.8627 67.9489 85.9597C70.6675 96.3842 80.8623 101.028 91.0571 96.3842C101.019 91.7982 107.154 79.7165 104.436 69.3883Z" fill="white"/>
<path fill-rule="evenodd" clip-rule="evenodd" d="M97.5328 71.3153C97.5328 76.672 93.3654 80.892 88.0713 80.892C82.8666 80.892 78.6992 76.672 78.6992 71.3153C78.6992 66.2861 82.8666 62.0469 88.1607 62.0469C93.3654 62.0469 97.5328 66.2668 97.5328 71.3153Z" fill="#0B0000"/>
<path fill-rule="evenodd" clip-rule="evenodd" d="M90.464 62.1797C87.2982 62.1797 84.7227 64.6461 84.7227 67.6714C84.7227 70.6966 87.2803 73.163 90.464 73.163C93.6297 73.163 96.2052 70.6966 96.2052 67.6714C96.2052 64.6461 93.6297 62.1797 90.464 62.1797Z" fill="white"/>
<path fill-rule="evenodd" clip-rule="evenodd" d="M57.5738 83.089C71.3816 72.1635 77.9635 55.6499 72.9734 43.26C70.7913 37.8454 66.9638 33.375 62.2778 30.5617C58.9868 28.2109 55.0699 26.7272 50.9562 26.2262C40.8687 24.3185 28.7601 26.284 16.8483 31.7371C12.4663 33.7411 8.37048 36.0534 4.68604 38.5776L0 41.757L2.80804 46.8825L11.5362 62.7795C11.5362 62.7795 14.2191 67.6738 14.237 67.6545L18.9767 65.1688L19.6384 64.822L41.3337 117.022L43.4263 122.032L48.2912 120.355L60.0421 116.309L65.1931 114.536L63.8338 108.909L57.5738 83.089Z" fill="black"/>
<path fill-rule="evenodd" clip-rule="evenodd" d="M67.7273 45.7037C65.9924 41.4068 63.0055 38.0347 59.1064 35.6646C56.2805 33.6413 53.0074 32.6394 49.949 32.2732C41.2566 30.6354 30.4358 32.1769 19.0426 37.3795C14.9826 39.2294 11.1908 41.3489 7.70312 43.7383L16.4313 59.6352C18.667 58.4598 21.0816 57.2073 22.3872 56.4558L46.5149 114.475L58.2658 110.428L51.0221 80.4072C64.9193 71.2159 71.9304 56.1283 67.7273 45.7037Z" fill="white"/>
<path fill-rule="evenodd" clip-rule="evenodd" d="M191.165 60.9675L182.902 52.9516L186.962 48.3077L190.611 44.1264L187.248 39.6752C180.684 30.9656 170.185 27.4779 159.168 30.349C143.84 34.3184 135.201 48.539 138.617 64.1276C139.994 70.4093 143.643 75.7853 148.919 79.273C155.215 83.4544 163.138 84.5913 171.205 82.4909C179.718 80.275 185.978 76.5561 191.469 70.4478L195.869 65.5535L191.165 60.9675Z" fill="#0B0000"/>
<path fill-rule="evenodd" clip-rule="evenodd" d="M178.459 57.1708C176.384 59.8106 174.005 62.2193 169.784 63.3176C168.371 63.6837 166.457 64.0306 165.241 63.7993L183.002 43.432C177.994 36.7842 169.766 33.7011 160.448 36.129C148.858 39.135 141.024 49.5403 143.922 62.7973C146.247 73.4531 157.193 79.9853 169.892 76.6903C177.582 74.6863 182.93 71.4877 187.724 66.1501L178.459 57.1708Z" fill="white"/>
<path fill-rule="evenodd" clip-rule="evenodd" d="M150.723 26.9959L172.472 0L184.509 19.3653L157.018 35.2815L150.723 26.9959Z" fill="#0B0000"/>
<path fill-rule="evenodd" clip-rule="evenodd" d="M171.538 8.59375L177.905 17.9199L159.715 27.6315L158.445 25.5697L171.538 8.59375Z" fill="white"/>
<path fill-rule="evenodd" clip-rule="evenodd" d="M158.06 57.48C156.754 54.9173 157.004 51.6223 158.954 49.3293C160.832 47.1133 163.694 46.4774 166.144 47.4987L158.06 57.48ZM158.954 49.3293C157.022 51.6223 156.754 54.9173 158.06 57.48L166.144 47.4987C163.694 46.4774 160.814 47.1133 158.954 49.3293ZM170.633 45.9957C166.484 41.93 160.081 42.2575 156.307 46.7279C152.533 51.1983 152.837 58.0967 156.987 62.1624C157.326 62.5093 157.702 62.7983 158.078 63.0681L171.367 46.7665C171.116 46.4967 170.884 46.2462 170.633 45.9957ZM158.06 57.48C156.754 54.9173 157.004 51.6223 158.954 49.3293C160.832 47.1133 163.694 46.4774 166.144 47.4987L158.06 57.48Z" fill="black"/>
<path fill-rule="evenodd" clip-rule="evenodd" d="M58.5956 55.6304C57.5583 49.4836 50.1357 46.0344 42.6953 50.3314L44.5554 57.3839L47.4887 67.7891L48.8301 72.5293C54.4104 68.7333 60.0265 64.1473 58.5956 55.6304ZM51.2089 65.0336C50.404 62.1818 48.6691 56.035 48.6691 56.035C48.687 56.0736 48.3114 54.7055 47.9179 53.1832C49.4919 52.8749 50.9942 53.0291 52.2462 53.6842C52.9438 54.0503 54.1421 54.8789 54.3925 56.4589C54.9827 59.9852 53.8559 62.5094 51.2089 65.0336Z" fill="black"/>
<path fill-rule="evenodd" clip-rule="evenodd" d="M61.7812 125.789C61.7991 125.847 61.817 125.885 61.8349 125.943C61.8349 125.962 61.8528 125.982 61.8528 126.001C61.8349 125.924 61.7991 125.866 61.7812 125.789Z" fill="black"/>
<path fill-rule="evenodd" clip-rule="evenodd" d="M295.828 113.418H301.176V114.266H298.958V120.528H298.046V114.266H295.828V113.418Z" fill="black"/>
<path fill-rule="evenodd" clip-rule="evenodd" d="M301.965 120.528V113.418H303.253L305.148 119.43L307.026 113.418H308.296V120.528H307.456V116.328C307.456 116.173 307.456 115.942 307.474 115.615C307.474 115.287 307.474 114.921 307.474 114.536L305.596 120.528H304.719L302.823 114.536V114.748C302.823 114.921 302.823 115.191 302.841 115.538C302.841 115.884 302.859 116.154 302.859 116.328V120.528H301.965V120.528Z" fill="black"/>
</svg>
